# xmcd
#
# Track frame offsets:
#	150
#	2805
#	25584
#	50341
#	69424
#	71757
#	100752
#	120161
#	141979
#	144594
#	156541
#	191890
#	202932
#	211674
#
# Disc length: 2938 seconds
#
# Revision: 0
# Processed by: cddbd v1.4PL0 Copyright (c) Steve Scherf et al.
# Submitted via: dBpowerAMP V4.0
#
DISCID=c30b780e
DTITLE=Skip James - The Complete Bloomington, Indiana Concert (Part Ii)
DYEAR=1968
DGENRE=Blues
TTITLE0=Skip James Talking
TTITLE1=Illinois Blues
TTITLE2=Cypress Grove Blues
TTITLE3=Washington D.c. Hospital Center Blues
TTITLE4=Skip Talking
TTITLE5=Hard Headed Woman Blues
TTITLE6=Catfish Blues
TTITLE7=Hard-Luck Child
TTITLE8=Skip Talking
TTITLE9=Drunken Spree
TTITLE10=Back-Water Blues
TTITLE11=Look at The People
TTITLE12=Sorry For to Leave You
TTITLE13=Keep Your Lamp Trimmed And Burning
EXTD=
EXTT0=
EXTT1=
EXTT2=
EXTT3=
EXTT4=
EXTT5=
EXTT6=
EXTT7=
EXTT8=
EXTT9=
EXTT10=
EXTT11=
EXTT12=
EXTT13=
PLAYORDER=
